<?xml version="1.0" encoding="UTF-8"?>
<svg version="1.1" xmlns="http://www.w3.org/2000/svg" width="512" height="512">
<path d="M0 0 C22.35747185 16.84069308 36.64330143 39.44406262 41.55859375 67.1484375 C44.10950738 89.40685196 41.14626909 110.06472481 31 130 C30.47664062 131.04542969 29.95328125 132.09085938 29.4140625 133.16796875 C17.38257387 155.38220508 -3.80312256 172.12373028 -27.86621094 179.578125 C-55.72728075 187.75549403 -83.12791357 184.84566103 -108.875 171.625 C-114.77887093 168.30543755 -119.89427279 164.4299692 -125 160 C-125.80953125 159.34644531 -126.6190625 158.69289063 -127.453125 158.01953125 C-145.86897045 142.58612618 -157.36249276 118.71314384 -160 95 C-161.47583061 64.9703061 -155.24175721 37.74103137 -134.84375 15.03125 C-99.94292031 -22.62741091 -42.34819544 -29.52520496 0 0 Z " fill="#EE6A50" transform="translate(460,242)"/>
<path d="M0 0 C21.5963146 16.99293697 35.6408051 40.39653259 39.53125 67.6171875 C42.66072146 93.87392721 36.59705235 121.21779055 20.0625 142.25 C18.71764035 143.84124615 17.36370174 145.42487163 16 147 C15.39671875 147.74765625 14.7934375 148.4953125 14.171875 149.265625 C-1.35567017 167.92477592 -24.87578132 178.60895073 -48.62890625 181.72265625 C-74.96510121 183.88936522 -102.20963732 178.07068085 -122.90234375 160.8203125 C-123.94068359 159.91925781 -123.94068359 159.91925781 -125 159 C-125.78503906 158.35804688 -126.57007813 157.71609375 -127.37890625 157.0546875 C-145.12541868 142.0020901 -157.4963841 119.82212989 -160.71484375 96.66796875 C-163.09131686 66.09936261 -156.96449845 39.00053132 -137 15 C-102.69520235 -24.45804028 -42.14629126 -30.45357865 0 0 Z " fill="#6E7FED" transform="translate(171,324)"/>
<path d="M0 0 C0.76828125 0.66515625 1.5365625 1.3303125 2.328125 2.015625 C3.07578125 2.61890625 3.8234375 3.2221875 4.59375 3.84375 C22.69599833 18.90785875 34.06905753 42.32429732 37.046875 65.48828125 C39.40023251 95.00330672 32.17503777 121.38996544 13.23828125 144.57421875 C-3.6833846 164.18866326 -27.5449469 177.28173222 -53.59936523 179.23510742 C-83.63464334 180.40780347 -110.03462082 172.72205485 -132.74609375 152.296875 C-150.39207607 135.80459268 -162.1395247 112.34536161 -163.87841797 88.140625 C-163.97442106 85.19984647 -164.00113601 82.27040011 -163.984375 79.328125 C-163.97873535 78.28011719 -163.9730957 77.23210937 -163.96728516 76.15234375 C-163.53509963 48.28707483 -152.21870871 24.94671029 -132.98046875 5.26171875 C-126.49269995 -0.92385413 -119.47635234 -5.61151458 -111.671875 -9.984375 C-110.85203125 -10.45617188 -110.0321875 -10.92796875 -109.1875 -11.4140625 C-75.22412249 -29.76340404 -29.40068523 -24.84832106 0 0 Z " fill="#30AA87" transform="translate(261.671875,27.984375)"/>
<path d="M0 0 C22.35747185 16.84069308 36.64330143 39.44406262 41.55859375 67.1484375 C44.10950738 89.40685196 41.14626909 110.06472481 31 130 C30.47664062 131.04542969 29.95328125 132.09085938 29.4140625 133.16796875 C17.38257387 155.38220508 -3.80312256 172.12373028 -27.86621094 179.578125 C-55.72728075 187.75549403 -83.12791357 184.84566103 -108.875 171.625 C-114.77887093 168.30543755 -119.89427279 164.4299692 -125 160 C-125.80953125 159.34644531 -126.6190625 158.69289063 -127.453125 158.01953125 C-145.86897045 142.58612618 -157.36249276 118.71314384 -160 95 C-161.47583061 64.9703061 -155.24175721 37.74103137 -134.84375 15.03125 C-99.94292031 -22.62741091 -42.34819544 -29.52520496 0 0 Z M-110 25 C-110.83015625 25.75023437 -111.6603125 26.50046875 -112.515625 27.2734375 C-127.33340872 41.33702264 -135.70561053 59.90289383 -136.40283203 80.29760742 C-136.66934657 100.11164979 -130.52327204 119.16351766 -117 134 C-116.27296875 134.81855469 -115.5459375 135.63710938 -114.796875 136.48046875 C-101.59248111 150.55805643 -83.26701201 159.04300806 -64.01171875 160.25 C-41.24602054 160.84341219 -21.94799746 153.88573932 -5.27734375 138.2421875 C5.66882328 127.46500075 11.80211552 115.65328964 16 101 C16.18691406 100.37351562 16.37382812 99.74703125 16.56640625 99.1015625 C21.7329778 80.57571308 17.08682867 61.11293054 8.13671875 44.62890625 C5.27324719 39.62270087 1.89627225 35.24574705 -2 31 C-2.67546875 30.23300781 -3.3509375 29.46601563 -4.046875 28.67578125 C-17.87526906 13.81278106 -37.47911573 6.39840325 -57.43676758 5.66748047 C-76.73648361 5.31305824 -95.6252758 11.86820308 -110 25 Z " fill="#FBD031" transform="translate(460,242)"/>
<path d="M0 0 C21.5963146 16.99293697 35.6408051 40.39653259 39.53125 67.6171875 C42.66072146 93.87392721 36.59705235 121.21779055 20.0625 142.25 C18.71764035 143.84124615 17.36370174 145.42487163 16 147 C15.39671875 147.74765625 14.7934375 148.4953125 14.171875 149.265625 C-1.35567017 167.92477592 -24.87578132 178.60895073 -48.62890625 181.72265625 C-74.96510121 183.88936522 -102.20963732 178.07068085 -122.90234375 160.8203125 C-123.94068359 159.91925781 -123.94068359 159.91925781 -125 159 C-125.78503906 158.35804688 -126.57007813 157.71609375 -127.37890625 157.0546875 C-145.12541868 142.0020901 -157.4963841 119.82212989 -160.71484375 96.66796875 C-163.09131686 66.09936261 -156.96449845 39.00053132 -137 15 C-102.69520235 -24.45804028 -42.14629126 -30.45357865 0 0 Z M-118.02734375 29.61328125 C-133.48576344 48.31643854 -138.74371616 69.07540604 -136.75390625 92.953125 C-133.8958273 112.63556557 -122.88815566 130.35962007 -107.4375 142.625 C-90.41618572 154.86240663 -70.93857976 160.21530721 -50.1171875 157.4921875 C-29.30688367 153.77453569 -11.06608035 143.94988835 1.50390625 126.64453125 C6.61649008 119.23920677 10.26040063 111.59482155 13 103 C13.31839844 102.071875 13.63679687 101.14375 13.96484375 100.1875 C19.57091573 81.58670816 15.79365327 62.33740819 7.06884766 45.45654297 C4.4557972 40.61204191 1.57748484 36.19360723 -2 32 C-2.4228125 31.43539062 -2.845625 30.87078125 -3.28125 30.2890625 C-13.57848172 17.0583171 -31.43998075 7.91959808 -47.859375 5.41015625 C-74.64071594 2.43761734 -99.05390213 9.78272317 -118.02734375 29.61328125 Z " fill="#8B9EF9" transform="translate(171,324)"/>
<path d="M0 0 C0.76828125 0.66515625 1.5365625 1.3303125 2.328125 2.015625 C3.07578125 2.61890625 3.8234375 3.2221875 4.59375 3.84375 C22.69599833 18.90785875 34.06905753 42.32429732 37.046875 65.48828125 C39.40023251 95.00330672 32.17503777 121.38996544 13.23828125 144.57421875 C-3.6833846 164.18866326 -27.5449469 177.28173222 -53.59936523 179.23510742 C-83.63464334 180.40780347 -110.03462082 172.72205485 -132.74609375 152.296875 C-150.39207607 135.80459268 -162.1395247 112.34536161 -163.87841797 88.140625 C-163.97442106 85.19984647 -164.00113601 82.27040011 -163.984375 79.328125 C-163.97873535 78.28011719 -163.9730957 77.23210937 -163.96728516 76.15234375 C-163.53509963 48.28707483 -152.21870871 24.94671029 -132.98046875 5.26171875 C-126.49269995 -0.92385413 -119.47635234 -5.61151458 -111.671875 -9.984375 C-110.85203125 -10.45617188 -110.0321875 -10.92796875 -109.1875 -11.4140625 C-75.22412249 -29.76340404 -29.40068523 -24.84832106 0 0 Z M-112.671875 20.015625 C-113.29835938 20.48871094 -113.92484375 20.96179688 -114.5703125 21.44921875 C-128.44928012 32.44816345 -137.46019709 50.67238405 -139.671875 68.015625 C-141.34098926 91.32858108 -135.99893314 112.14298902 -120.671875 130.015625 C-119.75148438 131.10423828 -119.75148438 131.10423828 -118.8125 132.21484375 C-110.62679084 141.117677 -98.93540331 147.81035455 -87.671875 152.015625 C-86.82238281 152.33402344 -85.97289062 152.65242187 -85.09765625 152.98046875 C-78.29268694 155.08699991 -71.61288362 155.29214916 -64.546875 155.328125 C-63.169552 155.33646362 -63.169552 155.33646362 -61.7644043 155.3449707 C-41.87210985 155.1364785 -23.53522023 147.05530545 -9.0859375 133.5234375 C3.39625877 120.55649574 12.62812202 103.27170266 13.328125 85.015625 C13.39128906 83.84515625 13.45445312 82.6746875 13.51953125 81.46875 C14.29920846 61.06804009 7.13946808 42.10983987 -6.671875 27.015625 C-7.55746094 25.99275391 -7.55746094 25.99275391 -8.4609375 24.94921875 C-17.38117634 15.25083142 -29.21100237 8.90012686 -41.671875 5.015625 C-42.68507813 4.69722656 -43.69828125 4.37882812 -44.7421875 4.05078125 C-68.45630308 -2.39779404 -94.08965351 4.10618879 -112.671875 20.015625 Z " fill="#4DC4A4" transform="translate(261.671875,27.984375)"/>
<path d="M0 0 C3.125 0.375 3.125 0.375 6 1 C6 4.63 6 8.26 6 12 C8.97 12 11.94 12 15 12 C14.97679687 11.30132812 14.95359375 10.60265625 14.9296875 9.8828125 C14.91164062 8.97273438 14.89359375 8.06265625 14.875 7.125 C14.85179687 6.22007812 14.82859375 5.31515625 14.8046875 4.3828125 C15 2 15 2 17 0 C21.55555556 0.55555556 21.55555556 0.55555556 23 2 C23.07205511 3.68608966 23.08386068 5.37500659 23.0625 7.0625 C23.05347656 7.98160156 23.04445312 8.90070313 23.03515625 9.84765625 C23.02355469 10.55792969 23.01195312 11.26820313 23 12 C24.19625 12.0825 25.3925 12.165 26.625 12.25 C32.14944209 12.95275588 35.54282124 15.38091249 39.25 19.5 C43.30168648 25.28812355 43.80316037 29.99411916 43 37 C41.51631052 41.47299488 39.42711441 44.77910165 36 48 C36.63228516 48.81404297 36.63228516 48.81404297 37.27734375 49.64453125 C37.82519531 50.35996094 38.37304688 51.07539063 38.9375 51.8125 C39.48277344 52.52019531 40.02804688 53.22789062 40.58984375 53.95703125 C44.06705646 58.99465521 43.76375063 65.13730466 43 71 C40.52843189 76.79835011 36.7236577 81.2526443 31 84 C28.29870997 84.5676624 25.76711798 84.80916428 23 85 C23.01160156 85.71027344 23.02320313 86.42054688 23.03515625 87.15234375 C23.04417969 88.07144531 23.05320313 88.99054688 23.0625 89.9375 C23.07410156 90.85402344 23.08570313 91.77054687 23.09765625 92.71484375 C23 95 23 95 22 96 C19 96.125 19 96.125 16 96 C15 95 15 95 14.90234375 92.71484375 C14.93489583 90.14322917 14.96744792 87.57161458 15 85 C11.37 85 7.74 85 4 85 C4.020625 86.629375 4.04125 88.25875 4.0625 89.9375 C4.08386068 91.62499341 4.07205511 93.31391034 4 95 C3 96 3 96 -0.0625 96.0625 C-1.031875 96.041875 -2.00125 96.02125 -3 96 C-4.20272819 93.59454362 -4.10071472 92.05003047 -4.0625 89.375 C-4.05347656 88.55773437 -4.04445313 87.74046875 -4.03515625 86.8984375 C-4.02355469 86.27195312 -4.01195313 85.64546875 -4 85 C-5.69769531 85.01740234 -5.69769531 85.01740234 -7.4296875 85.03515625 C-8.91145669 85.04453454 -10.39322765 85.0536347 -11.875 85.0625 C-12.62136719 85.07087891 -13.36773437 85.07925781 -14.13671875 85.08789062 C-19.7734375 85.11328125 -19.7734375 85.11328125 -22 84 C-22.04254356 82.00045254 -22.04080783 79.99958364 -22 78 C-21.505 77.505 -21.505 77.505 -21 77 C-18.03 77 -15.06 77 -12 77 C-12 58.19 -12 39.38 -12 20 C-14.64 20 -17.28 20 -20 20 C-22 18 -22 18 -22.1875 15.4375 C-22 13 -22 13 -21 12 C-19.58429877 11.91348389 -18.164405 11.89295096 -16.74609375 11.90234375 C-15.46508789 11.90717773 -15.46508789 11.90717773 -14.15820312 11.91210938 C-13.26037109 11.92048828 -12.36253906 11.92886719 -11.4375 11.9375 C-10.53580078 11.94201172 -9.63410156 11.94652344 -8.70507812 11.95117188 C-6.46998686 11.96299775 -4.23502563 11.9794778 -2 12 C-2.02320312 11.30132812 -2.04640625 10.60265625 -2.0703125 9.8828125 C-2.08835937 8.97273438 -2.10640625 8.06265625 -2.125 7.125 C-2.14820312 6.22007812 -2.17140625 5.31515625 -2.1953125 4.3828125 C-2 2 -2 2 0 0 Z " fill="#FDFDFE" transform="translate(100,357)"/>
<path d="M0 0 C3.53571429 0.53571429 3.53571429 0.53571429 5 2 C5.07205511 3.68608966 5.08386068 5.37500659 5.0625 7.0625 C5.05347656 7.98160156 5.04445313 8.90070313 5.03515625 9.84765625 C5.02355469 10.55792969 5.01195312 11.26820313 5 12 C6.546875 11.87625 6.546875 11.87625 8.125 11.75 C14.61733014 11.72664629 20.9386842 13.82047175 27 16 C29 18 29 18 29.25 21 C29 24 29 24 27 26 C21.96413265 25.55362474 17.01253107 24.45256405 12.0625 23.4375 C9.731875 22.963125 7.40125 22.48875 5 22 C5 31.57 5 41.14 5 51 C7.31 51.33 9.62 51.66 12 52 C20.24817695 54.28307747 26.88360493 57.00983189 31.375 64.625 C33.96712356 70.43266925 34.15546241 76.45584127 32.1875 82.4921875 C28.47695552 90.14518549 21.84650651 94.22847101 14 97 C11.33427985 97.49313497 8.70184283 97.72523632 6 98 C5.67 101.63 5.34 105.26 5 109 C3.00045254 109.04254356 0.99958364 109.04080783 -1 109 C-2 108 -2 108 -2.09765625 105.49609375 C-2.08605469 104.48675781 -2.07445312 103.47742188 -2.0625 102.4375 C-2.05347656 101.42558594 -2.04445313 100.41367187 -2.03515625 99.37109375 C-2.02355469 98.58863281 -2.01195312 97.80617188 -2 97 C-2.57105469 97.04640625 -3.14210938 97.0928125 -3.73046875 97.140625 C-11.93115723 97.5056795 -20.28551021 95.88801527 -27.359375 91.5546875 C-29 90 -29 90 -29.375 86.9375 C-29 84 -29 84 -27 82 C-22.19017543 82.29447906 -18.08160759 83.55150286 -13.6015625 85.28125 C-9.83333456 86.32232198 -5.88548454 86.5682795 -2 87 C-2 78.09 -2 69.18 -2 60 C-5.63 59.01 -9.26 58.02 -13 57 C-18.61357019 54.42857736 -23.68075892 51.33964869 -27 46 C-29.04891934 39.85324197 -29.27726794 32.38329752 -26.9765625 26.2890625 C-22.87884181 19.65573564 -16.63549155 14.9425081 -9.1875 12.625 C-6 12 -6 12 -2 12 C-2.02320313 11.30132812 -2.04640625 10.60265625 -2.0703125 9.8828125 C-2.08835937 8.97273438 -2.10640625 8.06265625 -2.125 7.125 C-2.14820313 6.22007812 -2.17140625 5.31515625 -2.1953125 4.3828125 C-2 2 -2 2 0 0 Z " fill="#FBCE31" transform="translate(399,270)"/>
<path d="M0 0 C5.74506465 3.3321375 11.19051057 7.18933279 13.125 13.8125 C14.37586757 27.05201971 14.37586757 27.05201971 11.75390625 30.7421875 C9.40381902 32.28636952 7.87556995 32.22508549 5.125 31.8125 C2.78739231 30.10013196 2.18828035 29.17426202 1.68359375 26.2890625 C1.62365234 24.87753906 1.62365234 24.87753906 1.5625 23.4375 C1.38220838 19.47108426 0.91137289 16.39151376 -0.875 12.8125 C-4.49570863 10.70041997 -7.74071614 10.30626116 -11.875 10.8125 C-16.09981746 13.0883823 -16.09981746 13.0883823 -18.875 16.8125 C-19.02995763 19.06224161 -19.12510928 21.31621536 -19.19140625 23.5703125 C-19.21218735 24.23336395 -19.23296844 24.89641541 -19.25437927 25.57955933 C-19.31979231 27.69876694 -19.37872105 29.818099 -19.4375 31.9375 C-19.48069309 33.37371081 -19.52430764 34.80990902 -19.56835938 36.24609375 C-19.67546499 39.76809594 -19.77675575 43.29023825 -19.875 46.8125 C-19.01221436 46.79678955 -18.14942871 46.7810791 -17.26049805 46.76489258 C-14.05690733 46.71374045 -10.85352485 46.6761384 -7.6496582 46.64770508 C-6.26352081 46.63262603 -4.87743106 46.6121595 -3.49145508 46.58618164 C-1.49841854 46.54976284 0.49496723 46.53436982 2.48828125 46.51953125 C3.68751221 46.5038208 4.88674316 46.48811035 6.12231445 46.47192383 C9.125 46.8125 9.125 46.8125 11.01635742 48.14331055 C12.75041369 50.75413255 12.50565201 52.76728391 12.125 55.8125 C11.01635742 57.48168945 11.01635742 57.48168945 9.125 58.8125 C6.12231445 59.15307617 6.12231445 59.15307617 2.48828125 59.10546875 C1.18955078 59.09580078 -0.10917969 59.08613281 -1.44726562 59.07617188 C-2.81901639 59.05110585 -4.19076118 59.02571101 -5.5625 59 C-6.94594924 58.9849502 -8.32941401 58.9712623 -9.71289062 58.95898438 C-13.10065207 58.92357223 -16.48763139 58.87418054 -19.875 58.8125 C-19.85469727 59.39620361 -19.83439453 59.97990723 -19.81347656 60.58129883 C-19.71920549 65.26166508 -19.90625917 69.07754763 -21.625 73.5 C-21.94984375 74.37011719 -22.2746875 75.24023438 -22.609375 76.13671875 C-24.08223581 79.25063744 -25.94393013 81.96473644 -27.875 84.8125 C-26.58811279 84.79678955 -25.30122559 84.7810791 -23.9753418 84.76489258 C-19.20636236 84.71064225 -14.43741026 84.6761677 -9.66821289 84.64770508 C-7.60306209 84.63260729 -5.5379434 84.61212726 -3.47290039 84.58618164 C-0.50659261 84.54984205 2.45929171 84.5327837 5.42578125 84.51953125 C6.3508699 84.50404739 7.27595856 84.48856354 8.2290802 84.47261047 C9.08974594 84.47238388 9.95041168 84.47215729 10.8371582 84.47192383 C11.59438675 84.46526199 12.3516153 84.45860016 13.13179016 84.45173645 C15.70993865 84.91837171 16.60504651 85.70009258 18.125 87.8125 C18 91.375 18 91.375 17.125 94.8125 C13.68088191 97.10857873 12.3810376 97.06936002 8.32421875 97.0871582 C7.1328833 97.09669022 5.94154785 97.10622223 4.71411133 97.11604309 C3.42657959 97.11513168 2.13904785 97.11422028 0.8125 97.11328125 C-0.52124159 97.11716838 -1.85498195 97.12150309 -3.1887207 97.12626648 C-5.982951 97.1337259 -8.77705494 97.13343918 -11.57128906 97.12817383 C-15.1527122 97.12237469 -18.73361894 97.13932151 -22.31495667 97.1625185 C-25.06875636 97.17724588 -27.82243133 97.17812903 -30.57626343 97.17500877 C-32.53890253 97.17577207 -34.50152228 97.18965113 -36.46411133 97.20368958 C-38.2511145 97.19434639 -38.2511145 97.19434639 -40.07421875 97.18481445 C-41.12440186 97.18544388 -42.17458496 97.1860733 -43.2565918 97.1867218 C-45.875 96.8125 -45.875 96.8125 -47.70629883 95.46891785 C-49.59158658 92.796871 -49.38323411 90.98896322 -48.875 87.8125 C-46.875 85.4375 -46.875 85.4375 -43.875 82.8125 C-35.95879639 75.54314571 -32.58517487 69.61205577 -31.875 58.8125 C-33.10476562 58.86470703 -33.10476562 58.86470703 -34.359375 58.91796875 C-35.43703125 58.94503906 -36.5146875 58.97210938 -37.625 59 C-39.22601563 59.05220703 -39.22601563 59.05220703 -40.859375 59.10546875 C-44.2118133 58.7797785 -45.53971658 58.20351811 -47.875 55.8125 C-48.32426608 52.73181827 -48.51797386 50.78375276 -46.765625 48.13671875 C-43.93696988 46.1554913 -41.5895535 46.52394891 -38.1875 46.625 C-36.41826172 46.66560547 -36.41826172 46.66560547 -34.61328125 46.70703125 C-33.70964844 46.74183594 -32.80601562 46.77664062 -31.875 46.8125 C-31.89594727 45.9153125 -31.91689453 45.018125 -31.93847656 44.09375 C-32.00707616 40.73150141 -32.05700294 37.37000765 -32.09472656 34.00732422 C-32.11471295 32.55831083 -32.14191197 31.10937675 -32.17675781 29.66064453 C-32.39695317 20.2634837 -32.48876961 12.98496827 -25.875 5.5703125 C-25.215 5.03148438 -24.555 4.49265625 -23.875 3.9375 C-23.215 3.38320313 -22.555 2.82890625 -21.875 2.2578125 C-15.57835232 -2.2924993 -7.29377502 -2.87182193 0 0 Z " fill="#F9FCFB" transform="translate(213.875,59.1875)"/>
<path d="M0 0 C3.11781793 1.34317283 5.90420732 3.0958552 8.75 4.9375 C9.93916016 5.68749268 9.93916016 5.68749268 11.15234375 6.45263672 C17.51792816 10.53497012 23.34902383 14.9658238 29 20 C30.22009766 21.05767578 30.22009766 21.05767578 31.46484375 22.13671875 C44.99126962 34.03911876 58.08268524 47.15907907 67 63 C67 63.66 67 64.32 67 65 C67.66 65 68.32 65 69 65 C69.103125 64.071875 69.20625 63.14375 69.3125 62.1875 C70.25984252 57.79527559 70.25984252 57.79527559 73 56 C76.56317503 54.91555543 78.30293543 54.69899485 81.75 56.1875 C84.13054717 58.10516299 84.92444833 59.18428691 86 62 C85.89235944 69.21191739 83.06319925 76.61582056 81.0625 83.5 C80.80984375 84.38494141 80.5571875 85.26988281 80.296875 86.18164062 C80.04550781 87.01888672 79.79414063 87.85613281 79.53515625 88.71875 C79.312229 89.47091797 79.08930176 90.22308594 78.85961914 90.99804688 C77.84818651 93.35355599 77.07947737 94.48640758 75 96 C70.32831772 97.32032059 67.01077885 96.77441944 62.39453125 95.453125 C61.16412109 95.1025 59.93371094 94.751875 58.66601562 94.390625 C58.03348877 94.20306641 57.40096191 94.01550781 56.74926758 93.82226562 C54.81194513 93.24983605 52.86886613 92.70181243 50.92382812 92.15625 C40.31877977 89.08006151 40.31877977 89.08006151 38 86 C36.90554454 82.40393206 36.68033526 80.70326243 38.25 77.25 C40 75 40 75 43 73 C45.48046875 73.0234375 45.48046875 73.0234375 48.1875 73.375 C49.08855469 73.48585938 49.98960937 73.59671875 50.91796875 73.7109375 C51.60503906 73.80632812 52.29210937 73.90171875 53 74 C37.72351068 51.28389649 19.98102666 32.35572151 -3.70874023 18.3972168 C-7.17555596 16.32162916 -9.95727709 14.61576865 -12 11 C-12.5 8.0625 -12.5 8.0625 -12 5 C-8.43440697 0.02977941 -5.95987054 -0.68095589 0 0 Z " fill="#44384A" transform="translate(319,113)"/>
<path d="M0 0 C5.34371428 4.32686076 6.94358815 10.63743355 9.3125 16.875 C10.01342773 18.63263672 10.01342773 18.63263672 10.72851562 20.42578125 C11.16486328 21.56144531 11.60121094 22.69710937 12.05078125 23.8671875 C12.44950439 24.89956543 12.84822754 25.93194336 13.2590332 26.99560547 C14.1028125 30.41687334 13.88690727 32.60981716 13 36 C11.375 38.375 11.375 38.375 9 40 C5.5625 40.5625 5.5625 40.5625 2 40 C-2.02260735 36.89162159 -3.82538237 33.5117067 -6 29 C-16.62291112 54.80346861 -22.46113753 78.87723106 -22.5847168 106.84326172 C-22.59929932 108.1067041 -22.61388184 109.37014648 -22.62890625 110.671875 C-22.6299939 112.35941895 -22.6299939 112.35941895 -22.63110352 114.08105469 C-23.0402401 117.31840544 -23.75773716 118.67322717 -26 121 C-28.6667893 122.12139048 -31.1315025 122.31872194 -34 122 C-37.55701813 119.57820042 -38.79274585 118.06512891 -39.6171875 113.828125 C-42.51171932 84.88280679 -37.01620253 52.03240507 -24 26 C-24.886875 26.061875 -25.77375 26.12375 -26.6875 26.1875 C-30.37829746 25.97858694 -32.06364264 25.18129404 -35 23 C-36.56935594 19.86128812 -36.35201103 17.46144178 -36 14 C-31.84065858 8.4363218 -26.02232036 6.59561324 -19.6875 4.1875 C-18.17639648 3.57745117 -18.17639648 3.57745117 -16.63476562 2.95507812 C-10.89066603 0.72853789 -6.16578788 -0.8964686 0 0 Z " fill="#433849" transform="translate(92,169)"/>
<path d="M0 0 C3.64224671 2.55732216 4.79931634 4.0801999 5.75 8.4375 C4.59162602 13.9397764 0.60892128 16.27971404 -3.95605469 19.28979492 C-6.02870524 20.53769272 -8.12508359 21.71837606 -10.25 22.875 C-11.41583618 23.51344849 -11.41583618 23.51344849 -12.60522461 24.16479492 C-32.79911968 34.99891569 -53.58358255 40.85052872 -76 45 C-75.360625 45.58910156 -74.72125 46.17820312 -74.0625 46.78515625 C-71.23164899 49.82510421 -71 51.88873953 -71 56 C-72.97873462 59.79257469 -74.28891584 60.77614017 -78.375 62.0625 C-84.98510836 61.94853261 -90.03661791 56.49674697 -95.0625 52.5 C-95.66126953 52.02691406 -96.26003906 51.55382812 -96.87695312 51.06640625 C-98.04486949 50.1428185 -99.2111155 49.21711368 -100.37548828 48.2890625 C-101.8644184 47.10758504 -103.36711392 45.94350925 -104.87109375 44.78125 C-107.52319501 42.56224417 -107.92290308 41.67845286 -108.3125 38.25 C-107.70472021 31.9290902 -102.41431726 26.82777144 -98.5625 21.9375 C-98.09779297 21.33873047 -97.63308594 20.73996094 -97.15429688 20.12304688 C-89.63152587 10.54384196 -89.63152587 10.54384196 -85 9 C-81.40429055 9 -79.82114616 9.82368725 -77 12 C-75.4452331 15.10953379 -75.71355563 17.56266761 -76 21 C-77.27307342 23.03888741 -78.60052828 25.04570814 -80 27 C-55.33793591 24.80276541 -30.26291172 15.85905263 -9.79296875 1.796875 C-6.19419785 -0.51841816 -4.20391867 -0.68791396 0 0 Z " fill="#433849" transform="translate(322,405)"/>
<path d="M0 0 C4.0209236 -0.09219952 8.03913024 -0.17171538 12.06054688 -0.21972656 C13.42623368 -0.23975319 14.79183569 -0.26698332 16.15722656 -0.30175781 C18.12787102 -0.35066432 20.09915983 -0.37091347 22.0703125 -0.390625 C23.84559326 -0.4220459 23.84559326 -0.4220459 25.65673828 -0.45410156 C29.68246604 0.09269657 31.805252 1.55199306 35 4 C35.598125 4.4125 36.19625 4.825 36.8125 5.25 C38.85614416 8.26168613 39.21459512 11.45592907 39 15 C37.77549163 18.65903388 35.89046869 21.32203064 32.79223633 23.6809082 C29.31003652 25.32594847 26.7924829 25.3420317 22.94921875 25.29296875 C22.29041214 25.28872391 21.63160553 25.28447906 20.95283508 25.28010559 C18.86396115 25.26341196 16.77607861 25.22578058 14.6875 25.1875 C13.26498797 25.17244097 11.8424607 25.15875469 10.41992188 25.14648438 C6.9459323 25.11609963 3.47406594 25.0573699 0 25 C0 16.75 0 8.5 0 0 Z " fill="#7484ED" transform="translate(96,409)"/>
<path d="M0 0 C4.16372198 -0.09218573 8.32386084 -0.17169966 12.48779297 -0.21972656 C13.90197795 -0.23975843 15.31608097 -0.26699248 16.72998047 -0.30175781 C18.77071419 -0.35065489 20.8103469 -0.37305123 22.8515625 -0.390625 C24.68968506 -0.4220459 24.68968506 -0.4220459 26.56494141 -0.45410156 C30.68612946 0.09070368 32.78866671 1.4063434 36 4 C38.8288298 8.2432447 38.65268001 12.01734529 38 17 C35.8828235 20.62944543 33.88235102 22.49846066 30 24 C26.79199219 24.22705078 26.79199219 24.22705078 23.046875 24.1953125 C22.38665344 24.1924826 21.72643188 24.18965271 21.04620361 24.18673706 C18.94728103 24.17558415 16.84879258 24.15048946 14.75 24.125 C13.32292285 24.11496384 11.89583898 24.1058391 10.46875 24.09765625 C6.97886677 24.07736623 3.48991662 24.03821077 0 24 C0 16.08 0 8.16 0 0 Z " fill="#6F80ED" transform="translate(96,377)"/>
<path d="M0 0 C7.76121944 1.72471543 11.62209213 2.62209213 17 8 C17.33735743 12.11576068 17.42282091 14.90564 15.9375 18.75 C13.41390412 21.68062748 10.66350876 23.78561469 7 25 C4.69 25 2.38 25 0 25 C0 16.75 0 8.5 0 0 Z " fill="#EE6E4F" transform="translate(404,332)"/>
<path d="M0 0 C0 8.25 0 16.5 0 25 C-7.90181818 23.87116883 -7.90181818 23.87116883 -10.875 21.5625 C-11.73738281 20.91474609 -11.73738281 20.91474609 -12.6171875 20.25390625 C-14.42774515 18.61212939 -14.94820751 17.43217011 -15.23828125 15.01171875 C-15.36474098 11.05153254 -15.35985274 8.63666254 -13.375 5.125 C-8.9433567 1.15984547 -5.98471636 0 0 0 Z " fill="#EE6B50" transform="translate(397,293)"/>
</svg>
